<svg width="193.000000" height="161.000000" viewBox="0 0 193 161" fill="none" xmlns="http://www.w3.org/2000/svg" xmlns:xlink="http://www.w3.org/1999/xlink">
	<desc>
			Created with Pixso.
	</desc>
	<defs/>
	<path id="FREE SHIPPING" d="M70.44 149.02Q71.95 149.68 73.84 149.68Q75.84 149.68 77.31 148.91Q78.63 148.22 79.38 147.14Q79.47 147.01 79.55 146.88Q80.04 146.07 80.22 145.2Q80.32 144.7 80.32 144.17Q80.32 142.39 79.5 141.33Q78.91 140.56 78.15 140.09Q77.84 139.9 77.5 139.75Q76.33 139.24 74.46 138.72Q73.06 138.34 72.25 138.02Q71.44 137.69 70.92 137.14Q70.77 136.98 70.66 136.8Q70.39 136.34 70.39 135.72Q70.39 134.82 70.82 134.22Q70.99 133.98 71.23 133.78Q71.29 133.73 71.36 133.69Q72.16 133.11 73.39 133.11Q74.79 133.11 75.67 133.78Q75.7 133.81 75.74 133.84Q76.33 134.32 76.56 134.94Q76.68 135.25 76.7 135.59L80.11 135.59Q79.99 134.13 79.29 133.05Q78.85 132.37 78.17 131.85Q78.08 131.77 77.98 131.7Q76.29 130.48 73.71 130.48Q71.79 130.48 70.34 131.13Q69.22 131.63 68.49 132.46Q68.26 132.71 68.07 133Q67.9 133.25 67.77 133.52Q67.26 134.55 67.26 135.83Q67.26 137.59 68.07 138.64Q68.66 139.41 69.43 139.88Q69.72 140.06 70.03 140.19Q71.17 140.69 73.01 141.17Q74.46 141.56 75.29 141.88Q76.05 142.18 76.58 142.71Q76.62 142.75 76.66 142.8Q76.79 142.92 76.88 143.07Q77.22 143.6 77.22 144.34Q77.22 145 76.96 145.52Q76.74 145.97 76.33 146.32Q75.44 147.09 73.84 147.09Q72.34 147.09 71.49 146.34Q71.47 146.32 71.46 146.31Q71.12 145.99 70.89 145.61Q70.56 145.04 70.49 144.31L67.21 144.31Q67.21 145.45 67.64 146.4Q67.82 146.79 68.07 147.14Q68.2 147.32 68.34 147.49Q69.16 148.46 70.44 149.02ZM181.17 134.52Q181.94 135.16 182.44 136.12L186.14 136.12Q185.49 134.46 184.35 133.26Q183.64 132.52 182.75 131.96Q182.17 131.6 181.56 131.32Q179.68 130.48 177.42 130.48Q175.71 130.48 174.18 131Q173.36 131.28 172.59 131.71Q171.57 132.28 170.75 133.07Q169.8 133.96 169.11 135.13Q168.85 135.59 168.63 136.07Q167.83 137.89 167.83 140.07Q167.83 142.27 168.65 144.1Q168.86 144.57 169.11 145.01Q169.82 146.21 170.79 147.12Q171.59 147.87 172.58 148.43Q173.21 148.78 173.88 149.03Q175.53 149.66 177.42 149.66Q179.33 149.66 180.97 149Q181.44 148.81 181.88 148.56Q183.19 147.85 184.18 146.83Q184.71 146.28 185.15 145.64Q185.84 144.64 186.24 143.54Q186.57 142.61 186.71 141.61L186.71 139.2L176.36 139.2L176.36 141.66L183.41 141.66Q183.13 143.58 182.08 144.86Q181.81 145.19 181.49 145.47Q181.23 145.71 180.93 145.91Q179.5 146.88 177.42 146.88Q175.78 146.88 174.46 146.23Q174.27 146.14 174.1 146.04Q173.57 145.74 173.13 145.35Q172.34 144.64 171.82 143.65Q170.99 142.1 170.99 140.07Q170.99 138.04 171.82 136.51Q172.34 135.53 173.11 134.84Q173.56 134.44 174.1 134.13Q174.27 134.03 174.46 133.94Q175.78 133.29 177.42 133.29Q179.12 133.29 180.41 134.01Q180.82 134.23 181.17 134.52ZM35.42 138.72L35.42 133.21L42.71 133.21L42.71 130.7L32.34 130.7L32.34 149.49L42.71 149.49L42.71 146.98L35.42 146.98L35.42 141.23L41.9 141.23L41.9 138.72L35.42 138.72ZM49.57 138.72L49.57 133.21L56.86 133.21L56.86 130.7L46.49 130.7L46.49 149.49L56.86 149.49L56.86 146.98L49.57 146.98L49.57 141.23L56.05 141.23L56.05 138.72L49.57 138.72ZM161.73 149.49L164.81 149.49L164.81 130.7L161.73 130.7L161.73 144.69L152.47 130.7L149.39 130.7L149.39 149.49L152.47 149.49L152.47 135.48L161.73 149.49ZM12.42 133.24L12.42 130.73L1.38 130.73L1.38 149.49L4.45 149.49L4.45 141.28L10.66 141.28L10.66 138.77L4.45 138.77L4.45 133.24L12.42 133.24ZM20.71 141.98L25.03 149.49L28.7 149.49L24.05 141.71Q26.06 141.22 27.13 139.95Q27.24 139.82 27.34 139.68Q27.87 138.93 28.14 138.1Q28.4 137.26 28.4 136.34Q28.4 135.22 28.02 134.24Q27.87 133.87 27.66 133.51Q27.58 133.38 27.5 133.25Q26.76 132.16 25.42 131.48Q23.92 130.73 21.76 130.73L15.28 130.73L15.28 149.49L18.36 149.49L18.36 141.98L20.71 141.98ZM98.95 149.49L98.95 130.73L95.88 130.73L95.88 138.77L87.05 138.77L87.05 130.73L83.97 130.73L83.97 149.49L87.05 149.49L87.05 141.28L95.88 141.28L95.88 149.49L98.95 149.49ZM106.08 149.49L106.08 130.73L103 130.73L103 149.49L106.08 149.49ZM123.11 137.61Q123.26 136.98 123.26 136.32Q123.26 135.19 122.87 134.22Q122.72 133.84 122.51 133.49Q122.42 133.33 122.32 133.18Q121.59 132.12 120.27 131.47Q118.77 130.73 116.61 130.73L110.13 130.73L110.13 149.49L113.21 149.49L113.21 141.88L116.61 141.88Q118.93 141.88 120.41 141.08Q121.83 140.32 122.51 139.14Q122.54 139.08 122.58 139.02Q122.94 138.34 123.11 137.61ZM139.17 137.61Q139.32 136.98 139.32 136.32Q139.32 135.19 138.93 134.22Q138.78 133.84 138.58 133.49Q138.49 133.33 138.38 133.18Q137.65 132.12 136.33 131.47Q134.84 130.73 132.68 130.73L126.2 130.73L126.2 149.49L129.28 149.49L129.28 141.88L132.68 141.88Q135 141.88 136.48 141.08Q137.9 140.32 138.58 139.14Q138.61 139.08 138.64 139.02Q139 138.34 139.17 137.61ZM145.34 149.49L145.34 130.73L142.26 130.73L142.26 149.49L145.34 149.49ZM21.76 139.53L18.36 139.53L18.36 133.24L21.76 133.24Q23.51 133.24 24.38 134.06Q24.55 134.23 24.7 134.42Q25.25 135.18 25.25 136.34Q25.25 137.45 24.74 138.22Q24.58 138.46 24.36 138.67L24.36 138.67Q23.49 139.53 21.76 139.53ZM119.23 138.57Q118.36 139.37 116.61 139.37L113.21 139.37L113.21 133.24L116.61 133.24Q118.57 133.24 119.43 134.21Q120.1 134.97 120.1 136.32Q120.1 137.49 119.53 138.24Q119.4 138.42 119.23 138.57ZM135.29 138.57Q134.43 139.37 132.68 139.37L129.28 139.37L129.28 133.24L132.68 133.24Q134.64 133.24 135.49 134.21Q136.16 134.97 136.16 136.32Q136.16 137.49 135.6 138.24Q135.46 138.42 135.29 138.57Z" fill="#22262A" fill-opacity="1.000000" fill-rule="evenodd"/>
	<path id="shipping" d="M141.81 33.74C141.81 33.72 141.81 33.71 141.81 33.69C141.8 33.08 141.56 32.5 141.12 32.07C140.69 31.65 140.1 31.41 139.5 31.41L138.89 31.41L129.48 13.23C129.28 12.85 128.98 12.54 128.62 12.32C128.26 12.1 127.84 11.98 127.41 11.99L111.36 11.99L111.97 7.13C112.07 6.2 111.97 5.26 111.68 4.37C111.39 3.49 110.92 2.67 110.29 1.98C109.66 1.29 108.89 0.74 108.03 0.37C107.18 0 106.25 -0.19 105.32 -0.18L55.48 -0.18C54.87 -0.17 54.28 0.05 53.83 0.46C53.38 0.87 53.1 1.44 53.04 2.04L52.54 6.04L80.94 6.04C81.37 6.04 81.8 6.13 82.2 6.29C82.6 6.46 82.97 6.71 83.27 7.02C83.57 7.33 83.81 7.7 83.97 8.11C84.13 8.51 84.2 8.95 84.19 9.38C84.16 10.27 83.79 11.12 83.15 11.74C82.51 12.37 81.65 12.72 80.76 12.72L71.29 12.72L71.29 12.74L43.48 12.74C42.85 12.74 42.24 12.99 41.79 13.43C41.34 13.86 41.08 14.46 41.06 15.09C41.05 15.4 41.1 15.71 41.21 15.99C41.32 16.28 41.49 16.54 41.7 16.76C41.92 16.98 42.18 17.16 42.46 17.28C42.74 17.4 43.05 17.46 43.36 17.46L80.18 17.46C81.02 17.58 81.78 18.01 82.32 18.66C82.86 19.31 83.15 20.14 83.12 20.99C83.09 21.94 82.69 22.84 82.01 23.51C81.33 24.17 80.42 24.55 79.47 24.56L54.09 24.56C53.45 24.57 52.84 24.82 52.39 25.26C51.93 25.71 51.66 26.31 51.64 26.95C51.63 27.26 51.69 27.57 51.8 27.86C51.91 28.15 52.08 28.42 52.3 28.64C52.51 28.86 52.77 29.04 53.06 29.16C53.35 29.28 53.65 29.34 53.97 29.34L79.05 29.34C79.9 29.46 80.67 29.88 81.22 30.53C81.77 31.18 82.07 32.02 82.04 32.87C82.01 33.82 81.61 34.73 80.93 35.4C80.24 36.06 79.33 36.44 78.37 36.44L49.59 36.44L47.17 36.44C46.54 36.45 45.92 36.7 45.47 37.14C45.01 37.59 44.74 38.2 44.73 38.83C44.71 39.14 44.77 39.45 44.88 39.74C44.99 40.03 45.16 40.3 45.38 40.52C45.59 40.75 45.85 40.92 46.14 41.04C46.43 41.16 46.74 41.22 47.05 41.22L49.13 41.22L48.32 49.76C48.22 50.69 48.32 51.63 48.61 52.52C48.9 53.41 49.37 54.22 50 54.91C50.63 55.6 51.4 56.15 52.25 56.52C53.11 56.9 54.04 57.08 54.97 57.07L56.77 57.07C57.19 59.49 58.46 61.68 60.34 63.26C62.23 64.83 64.61 65.69 67.07 65.68C69.57 65.66 71.99 64.8 73.94 63.24C75.89 61.68 77.25 59.5 77.81 57.07L100.28 57.07C102.07 57.05 103.8 56.4 105.17 55.24C106.42 56.43 108.09 57.09 109.82 57.07L110.19 57.07C110.61 59.49 111.88 61.68 113.76 63.26C115.64 64.83 118.03 65.69 120.48 65.68C122.98 65.66 125.4 64.8 127.35 63.24C129.3 61.68 130.67 59.5 131.23 57.07L132.71 57.07C134.61 57.03 136.44 56.3 137.85 55.01C139.25 53.72 140.14 51.96 140.34 50.07L141.8 33.98C141.8 33.95 141.8 33.93 141.8 33.91C141.8 33.89 141.8 33.84 141.81 33.81C141.81 33.78 141.81 33.76 141.81 33.74ZM67.19 60.91C66.41 60.91 65.65 60.76 64.93 60.46C64.21 60.16 63.56 59.72 63.02 59.16C62.48 58.6 62.06 57.94 61.78 57.22C61.49 56.5 61.36 55.72 61.39 54.95C61.44 53.36 62.1 51.85 63.24 50.73C64.38 49.62 65.91 49 67.5 48.99C68.28 48.98 69.05 49.13 69.77 49.44C70.48 49.74 71.13 50.18 71.67 50.73C72.21 51.29 72.64 51.95 72.92 52.67C73.2 53.4 73.33 54.17 73.31 54.95C73.26 56.54 72.59 58.05 71.45 59.16C70.31 60.27 68.78 60.9 67.19 60.91ZM120.61 60.91C119.83 60.91 119.06 60.76 118.35 60.46C117.63 60.16 116.98 59.72 116.44 59.16C115.9 58.6 115.47 57.94 115.19 57.22C114.91 56.5 114.78 55.72 114.8 54.95C114.85 53.36 115.52 51.85 116.66 50.73C117.8 49.62 119.33 49 120.92 48.99C121.7 48.98 122.47 49.13 123.18 49.44C123.9 49.74 124.55 50.18 125.09 50.73C125.63 51.29 126.06 51.95 126.34 52.67C126.62 53.4 126.75 54.17 126.73 54.95C126.68 56.54 126.01 58.05 124.87 59.16C123.73 60.27 122.2 60.9 120.61 60.91ZM135.6 49.76C135.52 50.44 135.2 51.08 134.69 51.54C134.18 52.01 133.52 52.27 132.83 52.3L131.23 52.3C130.71 49.99 129.41 47.94 127.56 46.47C125.71 45 123.41 44.21 121.05 44.22C118.65 44.23 116.31 45.03 114.4 46.49C112.48 47.94 111.1 49.98 110.44 52.3L109.95 52.3C109.66 52.3 109.38 52.25 109.12 52.14C108.86 52.03 108.62 51.86 108.42 51.66C108.23 51.44 108.09 51.19 108 50.91C107.92 50.64 107.89 50.35 107.92 50.06L110.93 16.75L117.83 16.75L116.74 28.88C116.64 29.81 116.74 30.75 117.03 31.64C117.32 32.52 117.79 33.34 118.42 34.03C119.05 34.72 119.82 35.27 120.68 35.64C121.53 36.01 122.46 36.2 123.39 36.19L136.82 36.19L135.6 49.76Z" fill="#FF6875" fill-opacity="1.000000" fill-rule="nonzero"/>
</svg>
