<svg width="190.000000" height="164.000000" viewBox="0 0 190 164" fill="none" xmlns="http://www.w3.org/2000/svg" xmlns:xlink="http://www.w3.org/1999/xlink">
	<desc>
			Created with Pixso.
	</desc>
	<defs/>
	<path id="SUPPORT 24/7" d="M164.63 157.2L171.98 126.98L168.93 126.98L161.61 157.2L164.63 157.2ZM134.32 144.6Q132.82 146.05 130.23 148.29L128.29 149.96L128.29 152.2L141.41 152.2L141.41 149.64L132.85 149.64L134.06 148.56Q136.17 146.69 137.54 145.27Q138.9 143.86 139.88 142.06Q140.58 140.8 140.79 139.46Q140.87 138.9 140.87 138.33Q140.87 136.31 139.95 134.9Q139.63 134.42 139.21 134.01Q139.02 133.82 138.81 133.66Q137.21 132.39 134.6 132.39Q132.64 132.39 131.16 133.24Q130.6 133.57 130.11 134.02Q129.89 134.23 129.69 134.45Q128.33 136.04 128.26 138.73L131.23 138.73Q131.29 137.06 132.14 136.05Q132.15 136.03 132.17 136.02Q132.4 135.75 132.68 135.55Q133.46 135 134.63 135Q136.11 135 136.88 135.74Q136.97 135.83 137.05 135.92Q137.82 136.84 137.82 138.46Q137.82 140.03 136.82 141.6Q135.82 143.16 134.32 144.6ZM180.42 152.47L187.93 135.16L187.93 132.87L174.92 132.87L174.92 135.49L184.91 135.49L177.32 152.47L180.42 152.47ZM143.73 146.05L143.73 148.37L153.51 148.37L153.51 152.47L156.53 152.47L156.53 148.37L159.04 148.37L159.04 145.7L156.53 145.7L156.53 133.03L152.81 133.03L143.73 146.05ZM4.17 152Q5.68 152.66 7.57 152.66Q9.57 152.66 11.04 151.89Q12.35 151.2 13.11 150.12Q13.2 149.99 13.28 149.86Q13.77 149.05 13.95 148.18Q14.05 147.67 14.05 147.15Q14.05 145.37 13.23 144.31Q12.64 143.55 11.88 143.07Q11.57 142.88 11.23 142.73Q10.06 142.22 8.19 141.7Q6.79 141.32 5.98 141Q5.17 140.67 4.64 140.12Q4.49 139.96 4.39 139.78Q4.12 139.32 4.12 138.7Q4.12 137.8 4.54 137.2Q4.71 136.96 4.95 136.76Q5.02 136.71 5.08 136.67Q5.89 136.09 7.12 136.09Q8.52 136.09 9.4 136.77Q9.43 136.79 9.46 136.82Q10.06 137.3 10.29 137.92Q10.41 138.23 10.43 138.57L13.83 138.57Q13.72 137.11 13.02 136.03Q12.58 135.35 11.9 134.83Q11.81 134.75 11.71 134.68Q10.01 133.46 7.44 133.46Q5.52 133.46 4.06 134.11Q2.95 134.61 2.21 135.44Q1.99 135.69 1.8 135.98Q1.63 136.23 1.49 136.5Q0.99 137.53 0.99 138.81Q0.99 140.57 1.8 141.62Q2.39 142.39 3.16 142.86Q3.44 143.04 3.75 143.17Q4.9 143.67 6.73 144.15Q8.19 144.54 9.01 144.86Q9.78 145.16 10.31 145.69Q10.35 145.73 10.39 145.78Q10.51 145.91 10.61 146.05Q10.95 146.58 10.95 147.32Q10.95 147.98 10.68 148.5Q10.46 148.95 10.06 149.3Q9.17 150.07 7.57 150.07Q6.07 150.07 5.22 149.32Q5.2 149.3 5.18 149.29Q4.84 148.97 4.62 148.59Q4.29 148.02 4.22 147.29L0.93 147.29Q0.93 148.44 1.37 149.38Q1.54 149.77 1.8 150.13Q1.92 150.31 2.06 150.47Q2.88 151.44 4.17 152ZM73.75 152.13Q75.29 152.66 77.02 152.66Q78.84 152.66 80.44 152.08Q81.17 151.82 81.86 151.44Q82.91 150.85 83.75 150.04Q84.67 149.15 85.33 148Q85.59 147.55 85.8 147.07Q86.6 145.23 86.6 143.05Q86.6 140.86 85.79 139.02Q85.59 138.55 85.33 138.11Q84.68 136.99 83.79 136.12Q82.94 135.29 81.86 134.69Q81.16 134.3 80.41 134.03Q78.82 133.46 77.02 133.46Q75.31 133.46 73.78 133.99Q72.96 134.27 72.19 134.69Q71.17 135.27 70.35 136.05Q69.4 136.94 68.71 138.11Q68.44 138.57 68.23 139.05Q67.43 140.87 67.43 143.05Q67.43 145.21 68.22 147.03Q68.44 147.53 68.71 148Q69.41 149.21 70.39 150.12Q71.2 150.88 72.19 151.44Q72.95 151.86 73.75 152.13ZM20.75 145.67L20.75 133.71L17.67 133.71L17.67 145.62Q17.67 147.91 18.64 149.51Q19.17 150.37 19.91 151Q20.52 151.52 21.27 151.88Q21.3 151.89 21.33 151.91Q22.97 152.66 24.96 152.66Q26.9 152.66 28.52 151.94Q28.59 151.91 28.66 151.88Q29.42 151.52 30.05 151Q30.79 150.37 31.33 149.51Q32.33 147.91 32.33 145.62L32.33 133.71L29.25 133.71L29.25 145.67Q29.25 147.69 28.24 148.76Q28.19 148.82 28.13 148.88Q28.04 148.97 27.95 149.04Q26.85 149.96 24.99 149.96Q23.18 149.96 22.09 149.08Q21.98 148.98 21.87 148.88Q21.81 148.82 21.75 148.76Q20.75 147.69 20.75 145.67ZM49.3 140.59Q49.45 139.96 49.45 139.3Q49.45 138.17 49.06 137.2Q48.91 136.82 48.7 136.47Q48.61 136.31 48.51 136.16Q47.78 135.1 46.46 134.45Q44.97 133.71 42.81 133.71L36.33 133.71L36.33 152.47L39.4 152.47L39.4 144.86L42.81 144.86Q45.13 144.86 46.61 144.06Q48.03 143.3 48.7 142.12Q48.74 142.06 48.77 142Q49.13 141.32 49.3 140.59ZM65.37 140.59Q65.51 139.96 65.51 139.3Q65.51 138.17 65.13 137.2Q64.98 136.82 64.77 136.47Q64.68 136.31 64.58 136.16Q63.85 135.1 62.53 134.45Q61.03 133.71 58.87 133.71L52.39 133.71L52.39 152.47L55.47 152.47L55.47 144.86L58.87 144.86Q61.19 144.86 62.67 144.06Q64.09 143.3 64.77 142.12Q64.8 142.06 64.84 142Q65.2 141.32 65.37 140.59ZM95.05 144.96L99.37 152.47L103.04 152.47L98.4 144.69Q100.41 144.2 101.47 142.92Q101.58 142.8 101.68 142.66Q102.21 141.91 102.48 141.08Q102.75 140.24 102.75 139.32Q102.75 138.2 102.36 137.22Q102.21 136.85 102 136.49Q101.93 136.36 101.84 136.23Q101.11 135.14 99.76 134.46Q98.27 133.71 96.1 133.71L89.62 133.71L89.62 152.47L92.7 152.47L92.7 144.96L95.05 144.96ZM118.81 136.22L118.81 133.71L105.72 133.71L105.72 136.22L110.74 136.22L110.74 152.47L113.82 152.47L113.82 136.22L118.81 136.22ZM79.87 149.38Q78.59 149.99 77.02 149.99Q75.42 149.99 74.12 149.36Q73.9 149.26 73.7 149.14Q73.22 148.86 72.8 148.5Q71.97 147.77 71.42 146.71Q70.59 145.13 70.59 143.05Q70.59 140.97 71.42 139.41Q71.97 138.36 72.8 137.64Q73.21 137.28 73.7 137Q73.87 136.9 74.06 136.81Q75.38 136.16 77.02 136.16Q78.63 136.16 79.94 136.79Q80.14 136.89 80.33 137Q80.85 137.29 81.28 137.68Q82.08 138.39 82.61 139.41Q83.44 140.97 83.44 143.05Q83.44 145.13 82.61 146.71Q82.08 147.74 81.28 148.46Q80.84 148.84 80.33 149.14Q80.11 149.27 79.87 149.38ZM147.27 145.7L153.64 136.16L153.64 145.7L147.27 145.7ZM45.42 141.55Q44.56 142.35 42.81 142.35L39.4 142.35L39.4 136.22L42.81 136.22Q44.76 136.22 45.62 137.19Q46.29 137.95 46.29 139.3Q46.29 140.47 45.73 141.22Q45.59 141.39 45.42 141.55ZM61.49 141.55Q60.62 142.35 58.87 142.35L55.47 142.35L55.47 136.22L58.87 136.22Q60.83 136.22 61.69 137.19Q62.36 137.95 62.36 139.3Q62.36 140.47 61.79 141.22Q61.66 141.39 61.49 141.55ZM96.1 142.51L92.7 142.51L92.7 136.22L96.1 136.22Q97.86 136.22 98.72 137.04Q98.9 137.21 99.04 137.4Q99.59 138.16 99.59 139.32Q99.59 140.43 99.08 141.2Q98.92 141.44 98.71 141.65L98.71 141.65Q97.83 142.51 96.1 142.51Z" fill="#22262A" fill-opacity="1.000000" fill-rule="evenodd"/>
	<path id="Path 3" d="M49.51 70.02L49.51 88.59L117.18 88.59L117.18 70.02C117.18 67.95 116.35 65.97 114.89 64.5C113.43 63.04 111.44 62.22 109.37 62.21L57.32 62.21C55.25 62.22 53.26 63.04 51.8 64.5C50.34 65.97 49.51 67.95 49.51 70.02L49.51 70.02ZM54.72 70.02C54.72 69.33 54.99 68.67 55.48 68.18C55.97 67.69 56.63 67.42 57.32 67.42L59.92 67.42L59.92 83.39L54.72 83.39L54.72 70.02ZM65.13 67.42L71.86 67.42L83.34 78.91L94.83 67.42L101.56 67.42L101.56 83.39L65.13 83.39L65.13 67.42ZM111.97 70.02L111.97 83.38L106.77 83.38L106.77 67.41L109.37 67.41C110.06 67.42 110.72 67.69 111.21 68.18C111.7 68.67 111.97 69.33 111.97 70.02ZM87.47 67.42L83.34 71.55L79.22 67.42L87.47 67.42Z" fill="#FF6875" fill-opacity="1.000000" fill-rule="nonzero"/>
	<path id="Path 4" d="M102.82 51.8L106.77 51.8L106.77 46.59L109.37 46.59C111.44 46.59 113.43 45.77 114.89 44.31C116.36 42.84 117.18 40.86 117.18 38.79L117.18 33.58C117.18 24.61 113.62 16 107.27 9.66C100.93 3.31 92.32 -0.25 83.34 -0.25C74.37 -0.25 65.76 3.31 59.42 9.66C53.07 16.01 49.51 24.61 49.51 33.59L49.51 38.79C49.51 40.86 50.34 42.84 51.8 44.31C53.26 45.77 55.25 46.59 57.32 46.6L61.26 46.6C62.71 50.7 65.27 54.31 68.65 57.04C72.04 59.76 76.12 61.5 80.43 62.04C84.74 62.58 89.12 61.9 93.08 60.1C97.03 58.29 100.4 55.42 102.82 51.8ZM109.37 41.39L106.62 41.39C106.72 40.52 106.77 39.66 106.77 38.79L106.77 33.58C106.77 32.71 106.72 31.84 106.62 30.98L109.37 30.98C110.06 30.98 110.72 31.25 111.21 31.74C111.7 32.23 111.97 32.89 111.97 33.58L111.97 38.79C111.97 39.48 111.7 40.14 111.21 40.63C110.72 41.12 110.06 41.39 109.37 41.39L109.37 41.39ZM83.34 4.96C89.6 4.96 95.68 7.02 100.67 10.81C105.65 14.59 109.25 19.91 110.93 25.93C110.42 25.83 109.9 25.78 109.37 25.78L105.43 25.78C103.81 21.21 100.82 17.26 96.87 14.46C92.91 11.66 88.19 10.16 83.34 10.16C78.5 10.16 73.78 11.66 69.82 14.46C65.87 17.26 62.87 21.21 61.26 25.78L57.32 25.78C56.79 25.78 56.27 25.83 55.75 25.93C57.43 19.91 61.04 14.59 66.02 10.81C71 7.02 77.09 4.96 83.34 4.96ZM98.29 23.18C96.61 25.58 94.37 27.55 91.77 28.91C89.17 30.26 86.28 30.98 83.34 30.98L65.31 30.98C65.83 27.36 67.43 23.99 69.9 21.29C72.37 18.59 75.59 16.7 79.14 15.86C82.7 15.01 86.43 15.26 89.85 16.57C93.26 17.88 96.2 20.18 98.29 23.18ZM57.32 41.39C56.63 41.39 55.97 41.12 55.48 40.63C54.99 40.14 54.72 39.48 54.72 38.79L54.72 33.59C54.72 32.9 54.99 32.24 55.48 31.75C55.97 31.26 56.63 30.99 57.32 30.98L60.07 30.98C59.97 31.85 59.92 32.72 59.92 33.59L59.92 38.79C59.92 39.66 59.97 40.53 60.07 41.39L57.32 41.39ZM65.12 38.79L65.12 36.19L83.34 36.19C86.64 36.18 89.9 35.48 92.9 34.14C95.91 32.79 98.6 30.83 100.8 28.37C101.31 30.06 101.57 31.82 101.57 33.59L101.57 38.79C101.57 41.49 100.97 44.16 99.8 46.6L91.15 46.6L88.86 44.31C87.4 45.78 85.41 46.6 83.34 46.6C81.27 46.6 79.28 45.78 77.82 44.31L74.14 47.99C76.35 50.21 79.29 51.55 82.42 51.77C85.54 51.99 88.64 51.08 91.15 49.2L91.15 51.8L96.08 51.8C93.51 54.31 90.27 56.01 86.75 56.68C83.23 57.35 79.58 56.97 76.28 55.58C72.97 54.19 70.15 51.85 68.17 48.87C66.18 45.88 65.13 42.38 65.13 38.79L65.12 38.79Z" fill="#FF6875" fill-opacity="1.000000" fill-rule="nonzero"/>
</svg>
