<svg width="189.000000" height="163.000000" viewBox="0 0 189 163" fill="none" xmlns="http://www.w3.org/2000/svg" xmlns:xlink="http://www.w3.org/1999/xlink">
	<desc>
			Created with Pixso.
	</desc>
	<defs/>
	<path id="100% REFUND" d="M12.27 133.54Q10.7 136.17 10.7 140.85Q10.7 145.57 12.27 148.24Q12.72 148.98 13.34 149.52Q14.94 150.89 17.72 150.89Q20.48 150.89 22.08 149.53Q22.71 148.99 23.16 148.24Q24.74 145.57 24.74 140.85Q24.74 136.17 23.16 133.54Q22.72 132.82 22.12 132.3Q20.52 130.91 17.72 130.91Q14.91 130.91 13.31 132.3Q12.71 132.82 12.27 133.54ZM29.58 133.54Q28 136.17 28 140.85Q28 145.57 29.58 148.24Q30.03 148.98 30.65 149.52Q32.25 150.89 35.03 150.89Q37.79 150.89 39.39 149.53Q40.02 148.99 40.46 148.24Q42.05 145.57 42.05 140.85Q42.05 136.17 40.46 133.54Q40.03 132.82 39.42 132.3Q37.82 130.91 35.03 130.91Q32.22 130.91 30.61 132.3Q30.01 132.82 29.58 133.54ZM0.84 131.26L0.84 134.07L3.35 134.07L3.35 150.95L6.46 150.95L6.46 131.26L0.84 131.26ZM45.6 133.35Q44.82 134.39 44.82 136.02Q44.82 137.63 45.59 138.68Q45.76 138.91 45.97 139.12Q46.32 139.46 46.72 139.7Q47.67 140.25 48.93 140.25Q50.18 140.25 51.12 139.71Q51.53 139.47 51.88 139.12Q52.09 138.91 52.26 138.68Q53.03 137.63 53.03 136.02Q53.03 134.39 52.26 133.35Q52.09 133.12 51.88 132.92Q51.54 132.59 51.15 132.36Q50.2 131.8 48.93 131.8Q47.64 131.8 46.69 132.37Q46.3 132.6 45.97 132.92Q45.77 133.12 45.6 133.35ZM50.52 150.95L61.3 132.15L58.27 132.15L47.5 150.95L50.52 150.95ZM94.31 140.17L94.31 134.66L101.61 134.66L101.61 132.15L91.24 132.15L91.24 150.95L101.61 150.95L101.61 148.43L94.31 148.43L94.31 142.69L100.79 142.69L100.79 140.17L94.31 140.17ZM150.26 150.95L153.34 150.95L153.34 132.15L150.26 132.15L150.26 146.14L141 132.15L137.92 132.15L137.92 150.95L141 150.95L141 136.93L150.26 150.95ZM79.6 143.44L83.92 150.95L87.59 150.95L82.95 143.17Q84.96 142.68 86.02 141.4Q86.13 141.27 86.23 141.13Q86.76 140.38 87.03 139.55Q87.3 138.72 87.3 137.79Q87.3 136.67 86.91 135.7Q86.76 135.32 86.55 134.97Q86.47 134.83 86.39 134.7Q85.65 133.61 84.31 132.94Q82.81 132.18 80.65 132.18L74.17 132.18L74.17 150.95L77.25 150.95L77.25 143.44L79.6 143.44ZM116.43 134.69L116.43 132.18L105.38 132.18L105.38 150.95L108.46 150.95L108.46 142.74L114.67 142.74L114.67 140.23L108.46 140.23L108.46 134.69L116.43 134.69ZM122.34 144.14L122.34 132.18L119.26 132.18L119.26 144.09Q119.26 146.38 120.23 147.98Q120.76 148.85 121.5 149.47Q122.11 150 122.87 150.35Q122.9 150.37 122.93 150.38Q124.57 151.14 126.55 151.14Q128.49 151.14 130.11 150.42Q130.18 150.38 130.25 150.35Q131.02 149.99 131.64 149.47Q132.38 148.84 132.92 147.98Q133.92 146.38 133.92 144.09L133.92 132.18L130.84 132.18L130.84 144.14Q130.84 146.16 129.84 147.24Q129.78 147.3 129.72 147.35Q129.64 147.44 129.54 147.52Q128.44 148.43 126.58 148.43Q124.77 148.43 123.69 147.55Q123.57 147.46 123.46 147.35Q123.4 147.3 123.35 147.24Q122.34 146.16 122.34 144.14ZM168.77 133.33Q166.52 132.18 163.52 132.18L157.39 132.18L157.39 150.95L163.52 150.95Q166.52 150.95 168.77 149.82Q170.13 149.15 171.11 148.12Q171.76 147.44 172.25 146.6Q173.48 144.49 173.48 141.63Q173.48 138.77 172.25 136.62Q171.72 135.69 171 134.95Q170.05 133.98 168.77 133.33ZM47.96 133.95Q48.35 133.67 48.93 133.67Q49.52 133.67 49.9 133.95Q50.63 134.48 50.63 136.02Q50.63 137.23 50.18 137.81Q50.02 138.02 49.81 138.16Q49.44 138.39 48.93 138.39Q48.35 138.39 47.97 138.11Q47.23 137.58 47.23 136.02Q47.23 134.48 47.96 133.95ZM21.43 137.15Q21.71 138.66 21.71 140.85Q21.71 143.11 21.44 144.66Q21.17 146.19 20.3 147.14Q20.2 147.24 20.1 147.33Q19.24 148.08 17.72 148.08Q16.2 148.08 15.33 147.33Q15.23 147.24 15.13 147.14Q14.26 146.19 13.99 144.66Q13.72 143.11 13.72 140.85Q13.72 138.66 14.01 137.15Q14.29 135.64 15.15 134.68Q15.26 134.56 15.38 134.46Q16.23 133.72 17.72 133.72Q19.21 133.72 20.05 134.46Q20.17 134.56 20.28 134.68Q21.15 135.64 21.43 137.15ZM38.74 137.15Q39.02 138.66 39.02 140.85Q39.02 143.11 38.75 144.66Q38.48 146.19 37.6 147.14Q37.51 147.24 37.41 147.33Q36.55 148.08 35.03 148.08Q33.51 148.08 32.64 147.33Q32.54 147.24 32.44 147.14Q31.56 146.19 31.29 144.66Q31.03 143.11 31.03 140.85Q31.03 138.66 31.31 137.15Q31.6 135.64 32.46 134.68Q32.57 134.56 32.69 134.46Q33.54 133.72 35.03 133.72Q36.51 133.72 37.36 134.46Q37.48 134.56 37.59 134.68Q38.45 135.64 38.74 137.15ZM80.65 140.99L77.25 140.99L77.25 134.69L80.65 134.69Q82.41 134.69 83.27 135.51Q83.45 135.68 83.59 135.88Q84.14 136.63 84.14 137.79Q84.14 138.9 83.63 139.67Q83.47 139.91 83.26 140.12L83.26 140.12Q82.38 140.99 80.65 140.99ZM168.26 146.94Q166.54 148.43 163.52 148.43L160.46 148.43L160.46 134.69L163.52 134.69Q166.43 134.69 168.13 136.12Q168.36 136.31 168.57 136.53Q168.72 136.69 168.85 136.85Q170.32 138.64 170.32 141.63Q170.32 144.57 168.88 146.31Q168.73 146.49 168.57 146.65Q168.42 146.8 168.26 146.94ZM56.59 144.39Q55.81 145.44 55.81 147.06Q55.81 148.67 56.58 149.72Q56.75 149.96 56.96 150.16Q57.31 150.5 57.71 150.74Q58.65 151.29 59.92 151.29Q61.11 151.29 62.01 150.79Q62.47 150.54 62.85 150.16Q63.05 149.96 63.23 149.72Q63.99 148.67 63.99 147.06Q63.99 145.44 63.22 144.39Q63.05 144.16 62.85 143.96Q62.48 143.61 62.05 143.36Q61.13 142.84 59.92 142.84Q58.63 142.84 57.68 143.41Q57.29 143.64 56.96 143.96Q56.76 144.16 56.59 144.39ZM58.92 144.99Q59.31 144.71 59.89 144.71Q60.48 144.71 60.86 144.99Q61.59 145.52 61.59 147.06Q61.59 148.6 60.86 149.13Q60.48 149.41 59.89 149.41Q59.31 149.41 58.93 149.13Q58.19 148.6 58.19 147.06Q58.19 145.52 58.92 144.99Z" fill="#22262A" fill-opacity="1.000000" fill-rule="evenodd"/>
	<path id="Path 1" d="M115.07 16.33L111.3 21.17C116.65 25.32 120.33 31.24 121.68 37.87C123.04 44.49 121.97 51.39 118.68 57.3C115.39 63.2 110.09 67.74 103.74 70.08C97.39 72.41 90.42 72.4 84.08 70.03C77.74 67.67 72.46 63.11 69.2 57.19C65.93 51.27 64.9 44.37 66.28 37.75C67.66 31.13 71.37 25.22 76.74 21.1C82.1 16.98 88.76 14.92 95.52 15.29L90.21 20.85L94.15 24.61L102.52 15.81L106.28 11.87L102.35 8.13L93.55 -0.25L89.8 3.69L95.52 9.15C86.74 8.75 78.13 11.73 71.48 17.47C64.82 23.22 60.62 31.3 59.74 40.05C58.85 48.8 61.35 57.56 66.72 64.52C72.1 71.48 79.93 76.12 88.62 77.49C90.41 77.77 92.22 77.92 94.04 77.92C101.21 77.9 108.19 75.64 114.01 71.47C119.83 67.29 124.21 61.4 126.52 54.62C128.84 47.84 128.98 40.51 126.93 33.64C124.87 26.78 120.73 20.73 115.07 16.33Z" fill="#FF6875" fill-opacity="1.000000" fill-rule="nonzero"/>
	<path id="Path 2" d="M97.34 61.05L97.34 57.52C101.53 57.05 105.6 54.41 105.6 49.38C105.6 42.56 99.25 41.78 94.62 41.21C91.66 40.85 89.39 40.44 89.39 38.64C89.39 36.15 92.91 35.88 94.42 35.88C96.66 35.88 99.06 36.93 99.87 38.28L100.11 38.67L104.76 36.52L104.53 36.05C103.84 34.68 102.82 33.51 101.56 32.64C100.3 31.77 98.85 31.23 97.33 31.06L97.33 27.95L91.88 27.95L91.88 31.05C86.81 31.8 83.79 34.61 83.79 38.64C83.79 45.21 89.76 45.88 94.11 46.37C97.99 46.83 99.8 47.79 99.8 49.39C99.8 52.44 95.57 52.68 94.28 52.68C91.4 52.68 88.62 51.24 87.81 49.33L87.61 48.86L82.56 51L82.76 51.47C84.26 54.97 87.49 57.17 91.89 57.69L91.89 61.05L97.34 61.05Z" fill="#FF6875" fill-opacity="1.000000" fill-rule="nonzero"/>
</svg>
