<svg width="24.000000" height="24.000000" viewBox="0 0 24 24" fill="none" xmlns="http://www.w3.org/2000/svg" xmlns:xlink="http://www.w3.org/1999/xlink">
	<desc>
			Created with Pixso.
	</desc>
	<defs>
		<clipPath id="clip14_305">
			<rect id="Other Icon/Paypal" width="24.237875" height="24.000000" transform="translate(-0.467285 -0.842896)" fill="white" fill-opacity="0"/>
		</clipPath>
	</defs>
	<rect id="Other Icon/Paypal" width="24.237875" height="24.000000" transform="translate(-0.467285 -0.842896)" fill="#FFFFFF" fill-opacity="0"/>
	<g clip-path="url(#clip14_305)">
		<path id="Vector" d="M8.97 6.04L8.97 6.04C9.02 5.82 9.22 5.65 9.45 5.65L16.26 5.65C16.27 5.65 16.27 5.65 16.28 5.65C16.14 3.26 14.11 2.15 12.33 2.15L5.53 2.15C5.29 2.15 5.09 2.32 5.04 2.54L5.04 2.54L2.07 16.06L2.07 16.06C2.07 16.09 2.05 16.12 2.05 16.16C2.05 16.43 2.28 16.65 2.56 16.65L6.63 16.65L8.97 6.04Z" fill="#1565C0" fill-opacity="1.000000" fill-rule="nonzero"/>
		<path id="Vector" d="M16.28 5.65C16.31 6.09 16.28 6.56 16.17 7.09C15.52 10.09 13.18 11.65 10.29 11.65C10.29 11.65 8.54 11.65 8.12 11.65C7.85 11.65 7.73 11.8 7.67 11.92L6.79 15.94L6.64 16.66L6.64 16.66L6 19.55L6 19.56C6 19.59 5.98 19.62 5.98 19.65C5.98 19.93 6.21 20.15 6.49 20.15L10.19 20.15L10.2 20.15C10.44 20.14 10.63 19.98 10.68 19.75L10.68 19.75L11.6 15.54C11.6 15.54 11.66 15.14 12.09 15.14C12.52 15.14 14.2 15.14 14.2 15.14C17.09 15.14 19.45 13.58 20.1 10.59C20.83 7.21 18.39 5.66 16.28 5.65Z" fill="#039BE5" fill-opacity="1.000000" fill-rule="nonzero"/>
		<path id="Vector" d="M9.45 5.65C9.22 5.65 9.02 5.81 8.97 6.04L8.97 6.04L7.67 11.92C7.73 11.8 7.85 11.65 8.11 11.65C8.54 11.65 10.25 11.65 10.25 11.65C13.14 11.65 15.52 10.09 16.17 7.09C16.28 6.56 16.31 6.09 16.28 5.65C16.28 5.65 16.27 5.65 16.26 5.65L9.45 5.65Z" fill="#283593" fill-opacity="1.000000" fill-rule="nonzero"/>
	</g>
</svg>
